# xmcd CD database file
#
# Track frame offsets:
#	150
#	12111
#	42911
#	56376
#	89466
#	109689
#	134891
#	170089
#	197442
#
# Disc length: 2960 seconds
#
# Revision: 0
# Processed by: cddbd v1.5.1PL0 Copyright (c) Steve Scherf et al.
# Submitted via: CDex 1.50beta10
#
DISCID=760b8e09
DTITLE=The Tiptons - Surrounded by Horns
DYEAR=2004
DGENRE=Jazz
TTITLE0=The Penguin
TTITLE1=Calder's Circus
TTITLE2=Gypsy Wedding
TTITLE3=Sahel
TTITLE4=Vorrei dire due parole
TTITLE5=After Before
TTITLE6=Dreamsville
TTITLE7=12 Days
TTITLE8=Crni Vlak (Black Train)
EXTD=YEAR: 2004
EXTT0=
EXTT1=
EXTT2=
EXTT3=
EXTT4=
EXTT5=
EXTT6=
EXTT7=
EXTT8=
PLAYORDER=
